<svg width="12" height="16" viewBox="0 0 12 16" fill="none" xmlns="http://www.w3.org/2000/svg">
<path d="M6 7.99999C6.791 7.99999 7.564 7.76497 8.222 7.32597C8.88 6.88597 9.393 6.26199 9.696 5.53099C9.998 4.79999 10.077 3.99596 9.923 3.21996C9.769 2.44396 9.388 1.73098 8.828 1.17198C8.269 0.611982 7.556 0.231012 6.78 0.0770117C6.004 -0.0769883 5.19999 0.00200143 4.46899 0.304001C3.73799 0.607001 3.114 1.12 2.674 1.778C2.235 2.436 2 3.20899 2 3.99999C2.001 5.06099 2.423 6.07701 3.173 6.82701C3.923 7.57701 4.939 7.99899 6 7.99999ZM6 1.33299C6.527 1.33299 7.04299 1.49001 7.48199 1.78301C7.91999 2.07601 8.262 2.49197 8.464 2.97997C8.666 3.46697 8.71801 4.003 8.61501 4.52C8.51301 5.038 8.259 5.51297 7.886 5.88597C7.513 6.25897 7.038 6.51298 6.52 6.61498C6.003 6.71798 5.467 6.66597 4.98 6.46397C4.492 6.26197 4.076 5.91998 3.783 5.48198C3.49 5.04298 3.33299 4.52699 3.33299 3.99999C3.33299 3.29299 3.614 2.614 4.114 2.114C4.614 1.614 5.293 1.33299 6 1.33299Z" fill="white"/>
<path d="M6 9.33398C4.409 9.33598 2.884 9.96802 1.759 11.093C0.634003 12.218 0.002 13.743 0 15.334C0 15.511 0.0700073 15.68 0.195007 15.805C0.320007 15.93 0.490007 16.001 0.667007 16.001C0.843007 16.001 1.013 15.93 1.138 15.805C1.263 15.68 1.33299 15.511 1.33299 15.334C1.33299 14.096 1.825 12.909 2.7 12.034C3.575 11.159 4.762 10.667 6 10.667C7.238 10.667 8.425 11.159 9.3 12.034C10.175 12.909 10.667 14.096 10.667 15.334C10.667 15.511 10.737 15.68 10.862 15.805C10.987 15.93 11.157 16.001 11.333 16.001C11.51 16.001 11.68 15.93 11.805 15.805C11.93 15.68 12 15.511 12 15.334C11.998 13.743 11.366 12.218 10.241 11.093C9.116 9.96802 7.591 9.33598 6 9.33398Z" fill="white"/>
</svg>
