<svg width="16" height="16" viewBox="0 0 16 16" fill="none" xmlns="http://www.w3.org/2000/svg">
<path d="M11.333 0C11.157 0 10.987 0.0700073 10.862 0.195007C10.737 0.320007 10.667 0.489992 10.667 0.666992C10.667 2.63299 8.94501 3.33301 7.33301 3.33301H2.66699C1.95899 3.33301 1.28101 3.61401 0.781006 4.11401C0.281006 4.61401 0 5.293 0 6V7.33301C0.001 7.73201 0.0930054 8.12599 0.268005 8.48499C0.442005 8.84399 0.695972 9.15901 1.00897 9.40601L3.39099 14.721C3.55999 15.101 3.83597 15.425 4.18597 15.652C4.53497 15.879 4.94301 16 5.35901 16C5.69101 16 6.01698 15.917 6.30798 15.758C6.59998 15.6 6.84598 15.371 7.02698 15.093C7.20698 14.814 7.31503 14.495 7.34003 14.165C7.36603 13.834 7.30797 13.503 7.17297 13.2L5.70599 10H7.33301C8.94501 10 10.667 10.701 10.667 12.667C10.667 12.843 10.737 13.013 10.862 13.138C10.987 13.263 11.157 13.333 11.333 13.333C11.51 13.333 11.68 13.263 11.805 13.138C11.93 13.013 12 12.843 12 12.667V0.666992C12 0.489992 11.93 0.320007 11.805 0.195007C11.68 0.0700073 11.51 0 11.333 0ZM5.95801 13.746C6.00201 13.846 6.02102 13.955 6.01202 14.064C6.00302 14.172 5.96802 14.277 5.90802 14.369C5.84902 14.46 5.767 14.535 5.672 14.587C5.576 14.639 5.46801 14.667 5.35901 14.667C5.20001 14.667 5.04501 14.62 4.91101 14.533C4.77801 14.447 4.67301 14.323 4.60901 14.177L2.737 10H4.23901L5.95801 13.746ZM10.667 9.73297C9.71399 8.99897 8.53501 8.62199 7.33301 8.66699H2.66699C2.31299 8.66699 1.974 8.526 1.724 8.276C1.474 8.026 1.33301 7.68701 1.33301 7.33301V6C1.33301 5.646 1.474 5.30701 1.724 5.05701C1.974 4.80701 2.31299 4.66699 2.66699 4.66699H7.33301C8.53501 4.71199 9.71399 4.33603 10.667 3.60303V9.73297ZM15.933 10.301C15.894 10.38 15.84 10.45 15.774 10.507C15.708 10.564 15.631 10.608 15.548 10.636C15.465 10.664 15.377 10.675 15.29 10.669C15.202 10.663 15.117 10.639 15.039 10.6L13.705 9.93298C13.547 9.85398 13.427 9.71597 13.371 9.54797C13.315 9.37997 13.328 9.197 13.407 9.039C13.486 8.88 13.624 8.75998 13.792 8.70398C13.96 8.64798 14.143 8.66099 14.301 8.73999L15.635 9.40698C15.792 9.48598 15.912 9.62402 15.968 9.79102C16.024 9.95802 16.011 10.14 15.933 10.298V10.301ZM13.407 4.30103C13.367 4.22303 13.344 4.13799 13.338 4.04999C13.332 3.96299 13.343 3.87499 13.371 3.79199C13.398 3.70899 13.442 3.63198 13.5 3.56598C13.557 3.49998 13.627 3.44598 13.705 3.40698L15.039 2.73999C15.197 2.66099 15.38 2.64798 15.548 2.70398C15.716 2.75998 15.854 2.88 15.933 3.039C16.012 3.197 16.025 3.37997 15.969 3.54797C15.913 3.71597 15.793 3.85398 15.635 3.93298L14.301 4.59998C14.223 4.63898 14.138 4.66301 14.05 4.66901C13.963 4.67501 13.875 4.66399 13.792 4.63599C13.709 4.60799 13.632 4.56402 13.566 4.50702C13.5 4.45002 13.446 4.38003 13.407 4.30103ZM13.333 6.66699C13.333 6.48999 13.404 6.32001 13.529 6.19501C13.654 6.07001 13.823 6 14 6H15.333C15.51 6 15.68 6.07001 15.805 6.19501C15.93 6.32001 16 6.48999 16 6.66699C16 6.84299 15.93 7.013 15.805 7.138C15.68 7.263 15.51 7.33301 15.333 7.33301H14C13.823 7.33301 13.654 7.263 13.529 7.138C13.404 7.013 13.333 6.84299 13.333 6.66699Z" fill="white"/>
</svg>
